<svg xmlns="http://www.w3.org/2000/svg" style="display: none;">
				<symbol id="pin" viewBox="0 0 512 512">
				  <path d="M256 0C153.755 0 70.573 83.182 70.573 185.426c0 126.888 165.939 313.167 173.004 321.035 6.636 7.391 18.222 7.378 24.846 0 7.065–7.868 173.004–194.147 173.004–321.035C441.425 83.182 358.244 0 256 0zm0 278.719c-51.442 0–93.292–41.851–93.292–93.293S204.559 92.134 256 92.134s93.291 41.851 93.291 93.293–41.85 93.292–93.291 93.292z"/>
				</symbol>
				<symbol id="flag" viewBox="0 0 48 63">
				 <path d="M46.672 3.971H5.213V1.938A1.02 1.02 0 0 0 4.59 1a1.007 1.007 0 0 0-.387-.077H1.168C.9.923.643 1.03.453 1.22c-.19.191-.296.45-.296.719v60.967a1.02 1.02 0 0 0 .624.94c.123.05.254.077.387.077h3.034c.268 0 .525-.108.715-.298.19-.191.296-.45.296-.719V38.52h41.459c.268 0 .525-.107.715-.297.19-.19.296-.45.296-.718V4.986c0-.27-.107-.528-.296-.718a1.009 1.009 0 0 0-.715-.298zm-3.048 17.131H25.437v12.523H7V21.102h18.437V8.922h18.187v12.18z"/>
				</symbol>

				<symbol id="pin-and-flag" viewBox="0 0 512 512">
				  <path fill= "currentColor" d="M256 0C153.755 0 70.573 83.182 70.573 185.426c0 126.888 165.939 313.167 173.004 321.035 6.636 7.391 18.222 7.378 24.846 0 7.065–7.868 173.004–194.147 173.004–321.035C441.425 83.182 358.244 0 256 0zm0 278.719c-51.442 0–93.292–41.851–93.292–93.293S204.559 92.134 256 92.134s93.291 41.851 93.291 93.293–41.85 93.292–93.291 93.292z"/>
				  <path d="M46.672 3.971H5.213V1.938A1.02 1.02 0 0 0 4.59 1a1.007 1.007 0 0 0-.387-.077H1.168C.9.923.643 1.03.453 1.22c-.19.191-.296.45-.296.719v60.967a1.02 1.02 0 0 0 .624.94c.123.05.254.077.387.077h3.034c.268 0 .525-.108.715-.298.19-.191.296-.45.296-.719V38.52h41.459c.268 0 .525-.107.715-.297.19-.19.296-.45.296-.718V4.986c0-.27-.107-.528-.296-.718a1.009 1.009 0 0 0-.715-.298zm-3.048 17.131H25.437v12.523H7V21.102h18.437V8.922h18.187v12.18z"/>
				</symbol>


				<symbol id="mail" viewBox="0 0 27.3968 21.3788">
					<title>custom properties</title>
					<path stroke="var(--color1)" d="M.7.7h25.997v19.979H.7z"></path>
					<path stroke="var(--color2)" d="M21.59 6.748l-7.892 7.883–7.891–7.883"></path>
				</symbol>
				<symbol id="mail-2" viewBox="0 0 27.3968 21.3788">
					<title>custom properties</title>
					<path d="M.7.7h25.997v19.979H.7z" fill = "#ff0000"  style = "fill: var(--primary-color)"></path>
					<path d="M46.672 3.971H5.213V1.938A1.02 1.02 0 0 0 4.59 1a1.007 1.007 0 0 0-.387-.077H1.168C.9.923.643 1.03.453 1.22c-.19.191-.296.45-.296.719v60.967a1.02 1.02 0 0 0 .624.94c.123.05.254.077.387.077h3.034c.268 0 .525-.108.715-.298.19-.191.296-.45.296-.719V38.52h41.459c.268 0 .525-.107.715-.297.19-.19.296-.45.296-.718V4.986c0-.27-.107-.528-.296-.718a1.009 1.009 0 0 0-.715-.298zm-3.048 17.131H25.437v12.523H7V21.102h18.437V8.922h18.187v12.18z" fill = "#0000ff"  style ="fill: var(--tertiary-color)"></path>
				</symbol>

				<symbol version="1.1" id="heart-1" class="heart" viewBox="0 0 349.9998169 314.7656555" fill="red">


													

						


							<path id="path" class="path-1" d="M321.0538025,28.9453487c-38.592804-38.5937996-101.1670074-38.5937996-139.7646027,0l-6.2896118,6.2880993
							l-6.2885895-6.2880993c-38.5957031-38.5937996-101.169899-38.5937996-139.7635956,0
							c-38.596199,38.5956955-38.596199,101.1704025-0.0019989,139.7646027l6.2876015,6.2881012L174.999588,314.7656555
							l139.7671051-139.7676086l6.2871094-6.2881012C359.6484985,130.1157532,359.6484985,67.5410461,321.0538025,28.9453487z"/>
							
						</symbol>
</svg>